<svg version="1.0" xmlns="http://www.w3.org/2000/svg"
 width="500.000000pt" height="500.000000pt" viewBox="0 0 500.000000 500.000000"
 preserveAspectRatio="xMidYMid meet">
<metadata>
Created by potrace 1.16, written by Peter Selinger 2001-2019
</metadata>
<g transform="translate(0.000000,500.000000) scale(0.100000,-0.100000)"
fill="#000000" stroke="none">
<path fill="#90EE90" d="M2457 4112 c-17 -19 -22 -68 -9 -88 10 -15 47 -34 67 -34 25 0 65 46
65 75 0 56 -86 89 -123 47z"/>
<path fill="#90EE90" d="M2213 4100 c-68 -28 -48 -133 25 -133 69 0 99 80 46 122 -29 23 -38
24 -71 11z"/>
<path fill="#90EE90" d="M2732 4084 c-49 -34 -44 -102 8 -124 80 -33 137 85 59 125 -35 19
-39 19 -67 -1z"/>
<path fill="#90EE90" d="M1968 3983 c-25 -29 -29 -53 -13 -82 37 -72 154 -26 130 50 -16 48
-86 67 -117 32z"/>
<path fill="#90EE90" d="M2970 3970 c-29 -29 -26 -74 6 -99 15 -12 34 -21 44 -21 10 0 29 9
44 21 50 40 21 119 -44 119 -17 0 -39 -9 -50 -20z"/>
<path fill="#90EE90" d="M2190 3880 c-27 -27 -25 -66 5 -95 29 -30 64 -32 93 -5 46 43 15 120
-48 120 -17 0 -39 -9 -50 -20z"/>
<path fill="#90EE90" d="M1750 3840 c-11 -11 -20 -33 -20 -50 0 -63 77 -94 120 -48 59 64 -38
160 -100 98z"/>
<path fill="#90EE90" d="M3190 3813 c-25 -32 -20 -69 12 -95 62 -54 149 30 98 95 -16 20 -30
27 -55 27 -25 0 -39 -7 -55 -27z"/>
<path fill="#90EE90" d="M2280 3730 c-27 -27 -25 -66 5 -95 30 -30 54 -31 89 -4 32 25 36 77
8 102 -25 23 -78 21 -102 -3z"/>
<path fill="#90EE90" d="M2686 3734 c-36 -35 -28 -91 15 -115 24 -13 61 -5 83 17 22 21 20 77
-2 97 -23 21 -76 22 -96 1z"/>
<path fill="#90EE90" d="M2510 3727 c-81 -41 -32 -160 53 -128 55 21 56 105 1 130 -30 13 -24
13 -54 -2z"/>
<path fill="#90EE90" d="M1750 3660 c-11 -11 -20 -33 -20 -50 0 -65 79 -94 119 -44 27 35 27
65 -2 92 -29 27 -71 28 -97 2z"/>
<path fill="#90EE90" d="M1570 3617 c-56 -28 -48 -110 14 -130 68 -22 117 77 60 122 -31 24
-40 25 -74 8z"/>
<path fill="#90EE90" d="M3370 3553 c-25 -32 -20 -69 12 -95 44 -38 111 -7 111 50 0 70 -80
99 -123 45z"/>
<path fill="#90EE90" d="M1880 3500 c-26 -26 -26 -81 -2 -103 19 -17 68 -22 88 -9 15 10 34
47 34 67 0 25 -46 65 -75 65 -14 0 -34 -9 -45 -20z"/>
<path fill="#90EE90" d="M3126 3499 c-50 -40 -24 -119 40 -119 69 0 101 78 48 119 -15 12 -34
21 -44 21 -10 0 -29 -9 -44 -21z"/>
<path fill='#FFFFFF' d="M2282 3410 c-52 -21 -65 -134 -26 -241 7 -23 14 -48 14 -55 0 -23
-54 -16 -94 11 -20 13 -36 20 -36 15 0 -22 43 -51 101 -67 71 -20 65 -11 169
-259 66 -156 94 -264 73 -277 -6 -4 -27 12 -48 33 -28 29 -39 49 -39 72 -1 28
-5 33 -30 38 -34 6 -72 65 -55 86 16 20 6 58 -18 69 -12 5 -24 16 -26 25 -2 8
-7 -7 -11 -34 -6 -40 -5 -52 8 -62 15 -11 22 -34 10 -34 -12 0 -51 24 -76 48
-20 18 -28 21 -28 11 0 -23 49 -65 103 -89 35 -16 47 -26 47 -43 0 -13 30 -54
73 -103 89 -98 102 -135 102 -284 -1 -175 -43 -273 -138 -319 -35 -17 -59 -20
-147 -19 -74 1 -112 -2 -130 -12 -14 -8 -51 -17 -84 -21 -41 -5 -65 -14 -80
-29 l-21 -22 30 15 c42 20 78 27 93 18 9 -6 6 -17 -13 -45 l-26 -38 29 21 c16
11 35 27 42 36 20 24 65 45 96 45 24 0 25 -2 13 -17 -13 -17 -13 -17 13 0 19
12 48 17 97 17 38 0 81 4 95 10 42 15 31 -6 -16 -34 -24 -14 -63 -28 -88 -31
-111 -14 -155 -28 -180 -55 -14 -16 -49 -36 -78 -45 -29 -9 -52 -19 -50 -21
11 -11 112 16 132 35 24 23 93 47 104 37 3 -4 -23 -33 -59 -66 -35 -33 -61
-60 -57 -60 16 0 98 63 125 95 21 27 42 39 83 50 30 8 56 13 57 11 11 -11 -16
-40 -56 -61 -26 -13 -53 -31 -61 -39 -8 -10 4 -7 31 9 50 28 74 32 65 10 -3
-8 -3 -15 0 -15 2 0 13 20 24 44 17 41 73 91 123 109 23 9 22 0 -9 -40 -14
-18 -34 -53 -45 -77 -11 -25 -39 -62 -64 -84 -25 -22 -45 -42 -45 -45 0 -4 21
6 48 21 32 19 54 41 67 68 24 48 95 135 95 116 0 -7 -16 -42 -35 -78 -19 -35
-35 -68 -35 -72 0 -12 49 52 50 65 0 18 34 82 43 83 4 0 8 -51 8 -112 1 -88 3
-104 10 -73 4 22 8 74 9 115 l0 75 20 -25 c11 -14 23 -36 27 -49 3 -14 17 -41
31 -60 19 -29 23 -31 17 -11 -4 14 -11 27 -15 30 -8 6 -50 98 -50 111 0 16 77
-76 85 -101 9 -32 42 -68 80 -87 17 -9 33 -21 37 -27 6 -8 8 -8 8 0 0 6 -22
32 -50 57 -27 25 -50 53 -50 60 0 8 -18 42 -40 75 -22 33 -40 62 -40 66 0 4
15 -1 33 -10 43 -22 107 -84 107 -105 0 -9 8 -23 18 -30 15 -13 16 -12 3 4
-23 29 -7 29 52 -1 31 -16 52 -22 45 -15 -6 8 -34 26 -60 39 -43 22 -68 47
-57 59 2 2 27 -2 54 -10 36 -9 65 -26 102 -61 66 -63 123 -108 123 -98 0 5
-30 36 -67 71 -37 34 -65 65 -61 68 11 11 77 -13 109 -39 17 -15 43 -26 59
-26 16 0 36 -3 46 -7 11 -4 15 -2 11 4 -4 6 -27 16 -52 23 -26 7 -55 24 -68
40 -22 27 -63 39 -177 55 -49 6 -121 42 -128 64 -3 10 0 11 9 5 8 -4 52 -11
99 -14 47 -4 94 -10 104 -15 14 -6 17 -5 12 3 -5 8 0 12 13 12 35 0 74 -20
118 -60 53 -50 62 -51 27 -4 -23 29 -25 37 -13 44 16 10 51 4 92 -17 38 -19
34 -7 -5 17 -18 11 -50 20 -71 20 -21 0 -52 8 -70 17 -25 13 -55 17 -136 15
-115 -1 -156 10 -204 56 -16 15 -35 38 -42 52 -17 32 -41 153 -50 246 l-7 71
69 62 c86 79 100 87 108 62 8 -25 41 -36 60 -21 8 7 15 25 15 41 0 29 1 29 43
23 23 -4 52 -13 65 -20 12 -8 22 -12 22 -9 0 3 -15 14 -32 25 -24 14 -51 20
-95 20 -65 0 -75 7 -46 31 18 16 57 98 50 106 -3 2 -13 -12 -22 -31 -19 -40
-209 -226 -230 -226 -10 0 -13 14 -12 49 3 55 30 98 99 154 34 28 49 34 75 30
25 -4 34 -1 43 16 6 12 8 25 5 30 -13 22 213 141 268 141 62 0 199 92 181 121
-5 9 -10 6 -15 -9 -10 -26 -88 -78 -131 -87 -46 -10 -55 6 -36 65 9 27 14 50
12 50 -2 0 -13 -20 -25 -45 -22 -48 -33 -55 -43 -29 -8 20 -45 15 -60 -8 -8
-13 -7 -23 2 -39 7 -11 12 -22 10 -24 -10 -8 -48 -25 -57 -25 -12 0 23 87 47
115 16 19 16 19 -2 5 -11 -8 -32 -34 -46 -57 -15 -23 -30 -40 -33 -37 -12 12
-47 -18 -47 -40 0 -17 -14 -32 -52 -57 -168 -109 -204 -126 -196 -96 2 7 32
64 66 127 62 112 66 116 137 160 81 50 85 65 6 26 -83 -43 -85 -41 -78 70 8
130 -10 109 -25 -30 -8 -73 -17 -115 -29 -129 -17 -21 -17 -21 -29 22 -6 25
-9 65 -6 90 l5 46 -16 -44 c-13 -38 -14 -56 -5 -115 12 -76 7 -91 -43 -151
-29 -34 -32 -32 -60 50 -12 37 -16 61 -9 69 41 56 48 73 52 124 4 61 43 175
71 206 13 16 13 18 1 14 -8 -2 -28 -28 -43 -56 -30 -56 -42 -63 -52 -32 -3 10
-21 28 -39 39 -18 11 -38 32 -44 46 -16 35 -65 32 -70 -3 -5 -34 16 -54 49
-47 36 8 65 -8 84 -46 31 -58 16 -151 -30 -189 -19 -16 -10 -29 -102 129 -81
139 -112 213 -113 265 l0 39 23 -21 c46 -44 117 -14 117 48 0 57 -55 85 -118
60z"/>
<path fill="#90EE90" d="M2861 3394 c-12 -15 -21 -34 -21 -44 0 -10 9 -29 21 -44 40 -50 119
-21 119 44 0 65 -79 94 -119 44z"/>
<path fill="#90EE90" d="M1450 3290 c-26 -26 -26 -81 -2 -103 19 -17 68 -22 88 -9 15 10 34
47 34 67 0 25 -46 65 -75 65 -14 0 -34 -9 -45 -20z"/>
<path fill="#90EE90" d="M3506 3259 c-51 -40 -22 -122 44 -122 64 0 92 72 45 118 -30 30 -54
31 -89 4z"/>
<path fill="#90EE90" d="M3080 3203 c-25 -32 -20 -69 12 -95 44 -38 111 -7 111 50 0 70 -80
99 -123 45z"/>
<path fill="#90EE90" d="M1796 3088 c-23 -32 -20 -65 9 -93 30 -30 54 -31 89 -4 30 24 34 63
10 97 -11 16 -25 22 -54 22 -29 0 -43 -6 -54 -22z"/>
<path fill="#90EE90" d="M1405 3015 c-28 -27 -31 -45 -14 -78 16 -30 28 -37 65 -37 38 0 64
27 64 66 0 35 -8 47 -37 63 -33 17 -51 14 -78 -14z"/>
<path fill="#90EE90" d="M3506 2849 c-30 -24 -34 -63 -10 -97 11 -16 25 -22 54 -22 44 0 70
26 70 71 0 30 -40 69 -70 69 -10 0 -29 -9 -44 -21z"/>
<path fill="#90EE90" d="M1447 2772 c-39 -43 -7 -122 48 -122 30 0 75 41 75 68 0 11 -9 31
-21 46 -25 32 -77 36 -102 8z"/>
<path fill="#90EE90" d="M1780 2770 c-27 -27 -26 -71 3 -98 30 -28 68 -28 95 1 44 46 14 117
-48 117 -17 0 -39 -9 -50 -20z"/>
<path fill="#90EE90" d="M3045 2555 c-30 -30 -31 -54 -4 -89 42 -53 122 -23 122 46 0 62 -73
89 -118 43z"/>
<path fill="#90EE90" d="M2040 2550 c-27 -27 -25 -66 5 -95 30 -30 54 -31 89 -4 30 24 34 63
10 97 -20 29 -76 30 -104 2z"/>
<path fill='#FFFFFF'  d="M2304 1307 c-2 -7 -3 -98 -2 -202 l3 -190 33 -3 32 -3 0 205 0 206
-30 0 c-17 0 -33 -6 -36 -13z"/>
<path fill='#FFFFFF' d="M960 1104 l0 -195 33 3 32 3 3 78 3 77 94 0 95 0 0 30 0 30 -95 0
-95 0 0 55 0 55 110 0 110 0 0 30 0 30 -145 0 -145 0 0 -196z"/>
<path fill='#FFFFFF' d="M2930 1270 c0 -30 0 -30 60 -30 l60 0 2 -162 3 -163 33 -3 32 -3 0
165 0 166 60 0 60 0 0 30 0 30 -155 0 -155 0 0 -30z"/>
<path fill='#FFFFFF' d="M1343 1199 c-32 -9 -39 -22 -27 -53 4 -11 11 -13 31 -5 56 21 112 7
126 -33 6 -16 -1 -18 -64 -18 -65 0 -73 -2 -100 -29 -39 -40 -39 -82 0 -122
24 -23 38 -29 73 -29 24 0 53 7 64 15 25 19 34 19 34 0 0 -10 10 -15 30 -15
l30 0 0 113 c0 126 -9 149 -66 173 -38 16 -83 17 -131 3z"/>
<path fill='#FFFFFF' d="M1716 1189 c-21 -17 -26 -18 -26 -5 0 12 -10 16 -35 16 l-36 0 3
-142 3 -143 30 0 30 0 5 103 c4 88 8 106 24 118 27 19 52 18 76 -6 17 -17 20
-33 20 -121 l0 -100 33 3 32 3 3 100 c2 74 7 104 19 117 19 22 52 23 79 4 16
-12 19 -29 22 -120 l4 -106 29 0 29 0 0 121 c0 120 0 121 -29 150 -39 38 -97
40 -138 5 l-28 -24 -28 24 c-36 30 -85 31 -121 3z"/>
<path fill='#FFFFFF' d="M3365 1179 l-35 -31 0 26 c0 22 -4 26 -30 26 l-30 0 0 -145 0 -145
29 0 28 0 5 80 c5 92 25 129 76 145 28 8 32 14 32 42 0 43 -27 44 -75 2z"/>
<path fill='#FFFFFF' d="M3540 1188 c-93 -63 -92 -200 2 -258 43 -26 113 -26 156 0 36 22 39
32 17 50 -12 10 -22 9 -50 -5 -43 -20 -89 -13 -110 18 -30 43 -22 47 90 47
l105 0 0 25 c0 110 -123 182 -210 123z"/>
<path fill='#FFFFFF' d="M3870 1188 c-91 -63 -92 -195 -1 -255 44 -29 113 -31 159 -3 35 22
39 32 18 49 -11 10 -22 9 -46 -4 -41 -21 -93 -13 -115 18 -30 43 -22 47 90 47
l105 0 0 30 c0 108 -123 177 -210 118z"/>
<path fill='#FFFFFF' d="M2150 1055 l0 -145 30 0 30 0 0 145 0 145 -30 0 -30 0 0 -145z"/>
<path fill='#FFFFFF' d="M2493 1055 c51 -124 58 -147 47 -161 -10 -10 -23 -14 -42 -10 -21 4
-30 1 -38 -14 -6 -11 -9 -24 -6 -29 9 -14 68 -19 99 -9 34 12 41 26 116 218
l59 151 -36 -3 c-35 -3 -35 -3 -70 -101 -19 -54 -38 -94 -42 -90 -4 4 -22 50
-41 100 l-34 93 -36 0 -37 0 61 -145z"/>
</g>
</svg>
